<mxfile host="Electron" agent="Mozilla/5.0 (Windows NT 10.0; Win64; x64) AppleWebKit/537.36 (KHTML, like Gecko) draw.io/26.2.2 Chrome/134.0.6998.178 Electron/35.1.2 Safari/537.36" version="26.2.2">
  <diagram name="Страница — 1" id="flqb_vgoVWN2gIgyEzhE">
    <mxGraphModel dx="5712" dy="4565" grid="1" gridSize="10" guides="1" tooltips="1" connect="1" arrows="1" fold="1" page="1" pageScale="1" pageWidth="827" pageHeight="1169" math="0" shadow="0">
      <root>
        <mxCell id="0" />
        <mxCell id="1" parent="0" />
        <mxCell id="AsZ9xVdUvR41cb9abi4R-146" value="AS IS" style="text;html=1;align=left;verticalAlign=top;whiteSpace=wrap;rounded=0;fillColor=#f8cecc;strokeColor=#b85450;fontSize=40;" parent="1" vertex="1">
          <mxGeometry x="40" y="-1140" width="2090" height="950" as="geometry" />
        </mxCell>
        <mxCell id="AsZ9xVdUvR41cb9abi4R-136" value="" style="rounded=1;whiteSpace=wrap;html=1;textShadow=1;labelBorderColor=light-dark(#0ff029, #ededed);dashed=1;dashPattern=1 1;" parent="1" vertex="1">
          <mxGeometry x="1578" y="-1093.5" width="510" height="485" as="geometry" />
        </mxCell>
        <mxCell id="AsZ9xVdUvR41cb9abi4R-16" value="" style="rounded=1;whiteSpace=wrap;html=1;textShadow=1;labelBorderColor=light-dark(#0ff029, #ededed);dashed=1;dashPattern=1 1;" parent="1" vertex="1">
          <mxGeometry x="50" y="-1080" width="460" height="380" as="geometry" />
        </mxCell>
        <mxCell id="AsZ9xVdUvR41cb9abi4R-1" value="Пациент" style="rounded=0;whiteSpace=wrap;html=1;fillColor=#dae8fc;strokeColor=#6c8ebf;" parent="1" vertex="1">
          <mxGeometry x="80" y="-1020" width="120" height="23" as="geometry" />
        </mxCell>
        <mxCell id="AsZ9xVdUvR41cb9abi4R-18" style="edgeStyle=none;rounded=0;orthogonalLoop=1;jettySize=auto;html=1;exitX=0.14;exitY=0.983;exitDx=0;exitDy=0;entryX=0.25;entryY=0;entryDx=0;entryDy=0;endArrow=classic;startFill=0;exitPerimeter=0;endFill=1;" parent="1" source="AsZ9xVdUvR41cb9abi4R-2" target="AsZ9xVdUvR41cb9abi4R-3" edge="1">
          <mxGeometry relative="1" as="geometry">
            <Array as="points">
              <mxPoint x="120" y="-889" />
            </Array>
          </mxGeometry>
        </mxCell>
        <mxCell id="AsZ9xVdUvR41cb9abi4R-2" value="&lt;div&gt;&lt;span style=&quot;background-color: transparent; color: light-dark(rgb(51, 51, 51), rgb(193, 193, 193));&quot;&gt;ФИО, телефон , д&lt;/span&gt;ата рождения, email, место работы(учебы), адрес, хронические заболевания&lt;/div&gt;" style="rounded=1;whiteSpace=wrap;html=1;fillColor=#f5f5f5;fontColor=#333333;strokeColor=#666666;align=left;" parent="1" vertex="1">
          <mxGeometry x="80" y="-979" width="280" height="59" as="geometry" />
        </mxCell>
        <mxCell id="AsZ9xVdUvR41cb9abi4R-3" value="Сотрудник ресепшена" style="rounded=0;whiteSpace=wrap;html=1;fillColor=#dae8fc;strokeColor=#6c8ebf;" parent="1" vertex="1">
          <mxGeometry x="80" y="-879" width="160" height="20" as="geometry" />
        </mxCell>
        <mxCell id="AsZ9xVdUvR41cb9abi4R-4" value="Файловый сервер" style="rounded=0;whiteSpace=wrap;html=1;fillColor=#dae8fc;strokeColor=#6c8ebf;" parent="1" vertex="1">
          <mxGeometry x="80" y="-747" width="160" height="20" as="geometry" />
        </mxCell>
        <mxCell id="AsZ9xVdUvR41cb9abi4R-8" style="edgeStyle=none;rounded=0;orthogonalLoop=1;jettySize=auto;html=1;exitX=0.5;exitY=1;exitDx=0;exitDy=0;entryX=0.215;entryY=0.007;entryDx=0;entryDy=0;entryPerimeter=0;endArrow=none;startFill=0;" parent="1" source="AsZ9xVdUvR41cb9abi4R-1" target="AsZ9xVdUvR41cb9abi4R-2" edge="1">
          <mxGeometry relative="1" as="geometry" />
        </mxCell>
        <mxCell id="AsZ9xVdUvR41cb9abi4R-10" value="&lt;br&gt;&lt;div&gt;Файлы с данными о пациенте&amp;nbsp;&lt;/div&gt;" style="rounded=1;whiteSpace=wrap;html=1;fillColor=#f5f5f5;fontColor=#333333;strokeColor=#666666;align=left;" parent="1" vertex="1">
          <mxGeometry x="80" y="-830" width="260" height="40" as="geometry" />
        </mxCell>
        <mxCell id="AsZ9xVdUvR41cb9abi4R-12" style="edgeStyle=none;rounded=0;orthogonalLoop=1;jettySize=auto;html=1;exitX=0.25;exitY=1;exitDx=0;exitDy=0;endArrow=none;startFill=0;" parent="1" source="AsZ9xVdUvR41cb9abi4R-3" edge="1">
          <mxGeometry relative="1" as="geometry">
            <mxPoint x="120" y="-830" as="targetPoint" />
          </mxGeometry>
        </mxCell>
        <mxCell id="AsZ9xVdUvR41cb9abi4R-13" style="edgeStyle=none;rounded=0;orthogonalLoop=1;jettySize=auto;html=1;exitX=0.145;exitY=1.032;exitDx=0;exitDy=0;entryX=0.25;entryY=0;entryDx=0;entryDy=0;exitPerimeter=0;" parent="1" source="AsZ9xVdUvR41cb9abi4R-10" target="AsZ9xVdUvR41cb9abi4R-4" edge="1">
          <mxGeometry relative="1" as="geometry" />
        </mxCell>
        <mxCell id="AsZ9xVdUvR41cb9abi4R-15" style="edgeStyle=none;rounded=0;orthogonalLoop=1;jettySize=auto;html=1;exitX=0.25;exitY=1;exitDx=0;exitDy=0;entryX=0.25;entryY=0;entryDx=0;entryDy=0;" parent="1" edge="1">
          <mxGeometry relative="1" as="geometry">
            <mxPoint x="100" y="450" as="targetPoint" />
          </mxGeometry>
        </mxCell>
        <mxCell id="AsZ9xVdUvR41cb9abi4R-17" value="Регистрация пациента" style="text;strokeColor=#82b366;fillColor=#d5e8d4;align=center;verticalAlign=middle;spacingLeft=4;spacingRight=4;overflow=hidden;points=[[0,0.5],[1,0.5]];portConstraint=eastwest;rotatable=0;whiteSpace=wrap;html=1;" parent="1" vertex="1">
          <mxGeometry x="75" y="-1060" width="410" height="30" as="geometry" />
        </mxCell>
        <mxCell id="AsZ9xVdUvR41cb9abi4R-19" value="&lt;font style=&quot;font-size: 7px;&quot;&gt;Отсутствие шифрования. Не испольуется RBAC. Доступны персональные данные&amp;nbsp;&amp;nbsp;&lt;/font&gt;&amp;nbsp;" style="whiteSpace=wrap;html=1;shape=mxgraph.basic.roundRectCallout;dx=30;dy=15;size=5;boundedLbl=1;fillColor=#fff2cc;strokeColor=#d6b656;" parent="1" vertex="1">
          <mxGeometry x="340" y="-859.5" width="150" height="49" as="geometry" />
        </mxCell>
        <mxCell id="AsZ9xVdUvR41cb9abi4R-22" value="" style="rounded=1;whiteSpace=wrap;html=1;textShadow=1;labelBorderColor=light-dark(#0ff029, #ededed);dashed=1;dashPattern=1 1;" parent="1" vertex="1">
          <mxGeometry x="1050" y="-1082" width="510" height="405" as="geometry" />
        </mxCell>
        <mxCell id="AsZ9xVdUvR41cb9abi4R-23" value="Файловый сервер" style="rounded=0;whiteSpace=wrap;html=1;fillColor=#dae8fc;strokeColor=#6c8ebf;" parent="1" vertex="1">
          <mxGeometry x="1235" y="-1012" width="120" height="23" as="geometry" />
        </mxCell>
        <mxCell id="AsZ9xVdUvR41cb9abi4R-59" style="edgeStyle=none;rounded=0;orthogonalLoop=1;jettySize=auto;html=1;exitX=0.5;exitY=1;exitDx=0;exitDy=0;entryX=0.5;entryY=0;entryDx=0;entryDy=0;" parent="1" source="AsZ9xVdUvR41cb9abi4R-25" target="AsZ9xVdUvR41cb9abi4R-26" edge="1">
          <mxGeometry relative="1" as="geometry" />
        </mxCell>
        <mxCell id="AsZ9xVdUvR41cb9abi4R-25" value="Файл с медкартой, файл журнал, файлы с результами анализов&amp;nbsp;&amp;nbsp;" style="rounded=1;whiteSpace=wrap;html=1;fillColor=#f5f5f5;fontColor=#333333;strokeColor=#666666;" parent="1" vertex="1">
          <mxGeometry x="1095" y="-957" width="195" height="40" as="geometry" />
        </mxCell>
        <mxCell id="AsZ9xVdUvR41cb9abi4R-61" style="edgeStyle=none;rounded=0;orthogonalLoop=1;jettySize=auto;html=1;exitX=0.5;exitY=0;exitDx=0;exitDy=0;entryX=0.5;entryY=1;entryDx=0;entryDy=0;endArrow=none;startFill=0;" parent="1" source="AsZ9xVdUvR41cb9abi4R-26" target="AsZ9xVdUvR41cb9abi4R-60" edge="1">
          <mxGeometry relative="1" as="geometry">
            <mxPoint x="1249" y="-1082" as="targetPoint" />
          </mxGeometry>
        </mxCell>
        <mxCell id="AsZ9xVdUvR41cb9abi4R-26" value="Специалист медик&amp;nbsp;" style="rounded=0;whiteSpace=wrap;html=1;fillColor=#dae8fc;strokeColor=#6c8ebf;" parent="1" vertex="1">
          <mxGeometry x="1215" y="-861" width="160" height="20" as="geometry" />
        </mxCell>
        <mxCell id="AsZ9xVdUvR41cb9abi4R-28" value="Лабораторя&amp;nbsp;" style="rounded=0;whiteSpace=wrap;html=1;fillColor=#dae8fc;strokeColor=#6c8ebf;" parent="1" vertex="1">
          <mxGeometry x="1330" y="-703" width="160" height="20" as="geometry" />
        </mxCell>
        <mxCell id="AsZ9xVdUvR41cb9abi4R-29" style="edgeStyle=none;rounded=0;orthogonalLoop=1;jettySize=auto;html=1;exitX=0.5;exitY=1;exitDx=0;exitDy=0;entryX=0.5;entryY=0;entryDx=0;entryDy=0;endArrow=none;startFill=0;" parent="1" source="AsZ9xVdUvR41cb9abi4R-23" target="AsZ9xVdUvR41cb9abi4R-25" edge="1">
          <mxGeometry relative="1" as="geometry" />
        </mxCell>
        <mxCell id="AsZ9xVdUvR41cb9abi4R-97" style="edgeStyle=none;rounded=0;orthogonalLoop=1;jettySize=auto;html=1;exitX=0.5;exitY=1;exitDx=0;exitDy=0;" parent="1" source="AsZ9xVdUvR41cb9abi4R-31" target="AsZ9xVdUvR41cb9abi4R-96" edge="1">
          <mxGeometry relative="1" as="geometry" />
        </mxCell>
        <mxCell id="AsZ9xVdUvR41cb9abi4R-31" value="Назначение анализов" style="rounded=1;whiteSpace=wrap;html=1;fillColor=#f5f5f5;fontColor=#333333;strokeColor=#666666;" parent="1" vertex="1">
          <mxGeometry x="1220" y="-779" width="160" height="30" as="geometry" />
        </mxCell>
        <mxCell id="AsZ9xVdUvR41cb9abi4R-34" style="edgeStyle=none;rounded=0;orthogonalLoop=1;jettySize=auto;html=1;exitX=0.25;exitY=1;exitDx=0;exitDy=0;entryX=0.5;entryY=0;entryDx=0;entryDy=0;endArrow=none;startFill=0;" parent="1" target="AsZ9xVdUvR41cb9abi4R-31" edge="1">
          <mxGeometry relative="1" as="geometry">
            <mxPoint x="1300" y="-841.0000000000001" as="sourcePoint" />
          </mxGeometry>
        </mxCell>
        <mxCell id="AsZ9xVdUvR41cb9abi4R-35" style="edgeStyle=none;rounded=0;orthogonalLoop=1;jettySize=auto;html=1;exitX=0.5;exitY=1;exitDx=0;exitDy=0;entryX=0.5;entryY=0;entryDx=0;entryDy=0;" parent="1" source="AsZ9xVdUvR41cb9abi4R-31" target="AsZ9xVdUvR41cb9abi4R-28" edge="1">
          <mxGeometry relative="1" as="geometry" />
        </mxCell>
        <mxCell id="AsZ9xVdUvR41cb9abi4R-36" value="Прием пациента" style="text;strokeColor=#82b366;fillColor=#d5e8d4;align=center;verticalAlign=middle;spacingLeft=4;spacingRight=4;overflow=hidden;points=[[0,0.5],[1,0.5]];portConstraint=eastwest;rotatable=0;whiteSpace=wrap;html=1;" parent="1" vertex="1">
          <mxGeometry x="1095" y="-1062" width="410" height="30" as="geometry" />
        </mxCell>
        <mxCell id="AsZ9xVdUvR41cb9abi4R-37" value="&lt;font style=&quot;font-size: 7px;&quot;&gt;Отсутствие шифрования. Не испольуется RBAC. Доступны персональные данные всех пациентов&amp;nbsp;&lt;/font&gt;&amp;nbsp;" style="whiteSpace=wrap;html=1;shape=mxgraph.basic.roundRectCallout;dx=123.79;dy=11;size=5;boundedLbl=1;fillColor=#fff2cc;strokeColor=#d6b656;" parent="1" vertex="1">
          <mxGeometry x="1380" y="-1012" width="170" height="55" as="geometry" />
        </mxCell>
        <mxCell id="AsZ9xVdUvR41cb9abi4R-38" value="&lt;span style=&quot;font-size: 7px;&quot;&gt;Риск получения устаревших данных о пациенте, д&lt;/span&gt;&lt;span style=&quot;font-size: 7px;&quot;&gt;оступны анализы всех пациентов&lt;/span&gt;" style="whiteSpace=wrap;html=1;shape=mxgraph.basic.roundRectCallout;dx=108.18;dy=9;size=5;boundedLbl=1;fillColor=#fff2cc;strokeColor=#d6b656;" parent="1" vertex="1">
          <mxGeometry x="1060" y="-1006" width="150" height="49" as="geometry" />
        </mxCell>
        <mxCell id="AsZ9xVdUvR41cb9abi4R-39" style="edgeStyle=none;rounded=0;orthogonalLoop=1;jettySize=auto;html=1;exitX=1;exitY=0.5;exitDx=0;exitDy=0;" parent="1" source="AsZ9xVdUvR41cb9abi4R-10" target="AsZ9xVdUvR41cb9abi4R-10" edge="1">
          <mxGeometry relative="1" as="geometry" />
        </mxCell>
        <mxCell id="AsZ9xVdUvR41cb9abi4R-41" value="" style="rounded=1;whiteSpace=wrap;html=1;textShadow=1;labelBorderColor=light-dark(#0ff029, #ededed);dashed=1;dashPattern=1 1;" parent="1" vertex="1">
          <mxGeometry x="540" y="-1085" width="490" height="465" as="geometry" />
        </mxCell>
        <mxCell id="AsZ9xVdUvR41cb9abi4R-42" value="Пациент" style="rounded=0;whiteSpace=wrap;html=1;fillColor=#dae8fc;strokeColor=#6c8ebf;" parent="1" vertex="1">
          <mxGeometry x="570" y="-1025" width="120" height="23" as="geometry" />
        </mxCell>
        <mxCell id="AsZ9xVdUvR41cb9abi4R-43" style="edgeStyle=none;rounded=0;orthogonalLoop=1;jettySize=auto;html=1;exitX=0.14;exitY=0.983;exitDx=0;exitDy=0;entryX=0.25;entryY=0;entryDx=0;entryDy=0;endArrow=classic;startFill=0;exitPerimeter=0;endFill=1;" parent="1" source="AsZ9xVdUvR41cb9abi4R-44" target="AsZ9xVdUvR41cb9abi4R-45" edge="1">
          <mxGeometry relative="1" as="geometry">
            <Array as="points">
              <mxPoint x="610" y="-894" />
            </Array>
          </mxGeometry>
        </mxCell>
        <mxCell id="AsZ9xVdUvR41cb9abi4R-44" value="Запись: ФИО, телефон&amp;nbsp;" style="rounded=1;whiteSpace=wrap;html=1;fillColor=#f5f5f5;fontColor=#333333;strokeColor=#666666;align=left;" parent="1" vertex="1">
          <mxGeometry x="570" y="-984" width="280" height="59" as="geometry" />
        </mxCell>
        <mxCell id="AsZ9xVdUvR41cb9abi4R-45" value="Сотрудник ресепшена" style="rounded=0;whiteSpace=wrap;html=1;fillColor=#dae8fc;strokeColor=#6c8ebf;" parent="1" vertex="1">
          <mxGeometry x="570" y="-884" width="160" height="20" as="geometry" />
        </mxCell>
        <mxCell id="AsZ9xVdUvR41cb9abi4R-46" value="Файловый сервер" style="rounded=0;whiteSpace=wrap;html=1;fillColor=#dae8fc;strokeColor=#6c8ebf;" parent="1" vertex="1">
          <mxGeometry x="570" y="-752" width="160" height="20" as="geometry" />
        </mxCell>
        <mxCell id="AsZ9xVdUvR41cb9abi4R-47" value="Специалист медик" style="rounded=0;whiteSpace=wrap;html=1;fillColor=#dae8fc;strokeColor=#6c8ebf;" parent="1" vertex="1">
          <mxGeometry x="570" y="-655" width="160" height="20" as="geometry" />
        </mxCell>
        <mxCell id="AsZ9xVdUvR41cb9abi4R-48" style="edgeStyle=none;rounded=0;orthogonalLoop=1;jettySize=auto;html=1;exitX=0.5;exitY=1;exitDx=0;exitDy=0;entryX=0.215;entryY=0.007;entryDx=0;entryDy=0;entryPerimeter=0;endArrow=none;startFill=0;" parent="1" source="AsZ9xVdUvR41cb9abi4R-42" target="AsZ9xVdUvR41cb9abi4R-44" edge="1">
          <mxGeometry relative="1" as="geometry" />
        </mxCell>
        <mxCell id="AsZ9xVdUvR41cb9abi4R-49" value="Запись:&amp;nbsp;Exсel файл журнал" style="rounded=1;whiteSpace=wrap;html=1;fillColor=#f5f5f5;fontColor=#333333;strokeColor=#666666;align=left;" parent="1" vertex="1">
          <mxGeometry x="570" y="-835" width="280" height="53" as="geometry" />
        </mxCell>
        <mxCell id="AsZ9xVdUvR41cb9abi4R-50" value="Exсel файл журнал" style="rounded=1;whiteSpace=wrap;html=1;fillColor=#f5f5f5;fontColor=#333333;strokeColor=#666666;" parent="1" vertex="1">
          <mxGeometry x="570" y="-706" width="160" height="30" as="geometry" />
        </mxCell>
        <mxCell id="AsZ9xVdUvR41cb9abi4R-51" style="edgeStyle=none;rounded=0;orthogonalLoop=1;jettySize=auto;html=1;exitX=0.25;exitY=1;exitDx=0;exitDy=0;endArrow=none;startFill=0;" parent="1" source="AsZ9xVdUvR41cb9abi4R-45" edge="1">
          <mxGeometry relative="1" as="geometry">
            <mxPoint x="610" y="-835" as="targetPoint" />
          </mxGeometry>
        </mxCell>
        <mxCell id="AsZ9xVdUvR41cb9abi4R-52" style="edgeStyle=none;rounded=0;orthogonalLoop=1;jettySize=auto;html=1;exitX=0.145;exitY=1.032;exitDx=0;exitDy=0;entryX=0.25;entryY=0;entryDx=0;entryDy=0;exitPerimeter=0;" parent="1" source="AsZ9xVdUvR41cb9abi4R-49" target="AsZ9xVdUvR41cb9abi4R-46" edge="1">
          <mxGeometry relative="1" as="geometry" />
        </mxCell>
        <mxCell id="AsZ9xVdUvR41cb9abi4R-53" style="edgeStyle=none;rounded=0;orthogonalLoop=1;jettySize=auto;html=1;exitX=0.25;exitY=1;exitDx=0;exitDy=0;entryX=0.25;entryY=0;entryDx=0;entryDy=0;endArrow=none;startFill=0;" parent="1" source="AsZ9xVdUvR41cb9abi4R-46" target="AsZ9xVdUvR41cb9abi4R-50" edge="1">
          <mxGeometry relative="1" as="geometry" />
        </mxCell>
        <mxCell id="AsZ9xVdUvR41cb9abi4R-54" style="edgeStyle=none;rounded=0;orthogonalLoop=1;jettySize=auto;html=1;exitX=0.25;exitY=1;exitDx=0;exitDy=0;entryX=0.25;entryY=0;entryDx=0;entryDy=0;" parent="1" source="AsZ9xVdUvR41cb9abi4R-50" target="AsZ9xVdUvR41cb9abi4R-47" edge="1">
          <mxGeometry relative="1" as="geometry" />
        </mxCell>
        <mxCell id="AsZ9xVdUvR41cb9abi4R-55" value="Запись пациента" style="text;strokeColor=#82b366;fillColor=#d5e8d4;align=center;verticalAlign=middle;spacingLeft=4;spacingRight=4;overflow=hidden;points=[[0,0.5],[1,0.5]];portConstraint=eastwest;rotatable=0;whiteSpace=wrap;html=1;" parent="1" vertex="1">
          <mxGeometry x="585" y="-1065" width="410" height="30" as="geometry" />
        </mxCell>
        <mxCell id="AsZ9xVdUvR41cb9abi4R-56" value="&lt;font style=&quot;font-size: 7px;&quot;&gt;Отсутствие шифрования. Не испольуется RBAC. Доступны персональные данные&amp;nbsp;&amp;nbsp;&lt;/font&gt;&amp;nbsp;" style="whiteSpace=wrap;html=1;shape=mxgraph.basic.roundRectCallout;dx=30;dy=15;size=5;boundedLbl=1;fillColor=#fff2cc;strokeColor=#d6b656;" parent="1" vertex="1">
          <mxGeometry x="850" y="-851" width="150" height="49" as="geometry" />
        </mxCell>
        <mxCell id="AsZ9xVdUvR41cb9abi4R-57" value="&lt;span style=&quot;font-size: 7px;&quot;&gt;Доступ к данным могут получить уволенные сотрудники&lt;/span&gt;" style="whiteSpace=wrap;html=1;shape=mxgraph.basic.roundRectCallout;dx=30;dy=15;size=5;boundedLbl=1;fillColor=#fff2cc;strokeColor=#d6b656;" parent="1" vertex="1">
          <mxGeometry x="715" y="-732" width="150" height="49" as="geometry" />
        </mxCell>
        <mxCell id="AsZ9xVdUvR41cb9abi4R-58" style="edgeStyle=none;rounded=0;orthogonalLoop=1;jettySize=auto;html=1;exitX=1;exitY=0.5;exitDx=0;exitDy=0;" parent="1" source="AsZ9xVdUvR41cb9abi4R-49" target="AsZ9xVdUvR41cb9abi4R-49" edge="1">
          <mxGeometry relative="1" as="geometry" />
        </mxCell>
        <mxCell id="AsZ9xVdUvR41cb9abi4R-62" style="edgeStyle=none;rounded=0;orthogonalLoop=1;jettySize=auto;html=1;exitX=0.5;exitY=0;exitDx=0;exitDy=0;entryX=0.5;entryY=1;entryDx=0;entryDy=0;" parent="1" source="AsZ9xVdUvR41cb9abi4R-60" target="AsZ9xVdUvR41cb9abi4R-23" edge="1">
          <mxGeometry relative="1" as="geometry" />
        </mxCell>
        <mxCell id="AsZ9xVdUvR41cb9abi4R-60" value="Файл с медкартой, файл журнал, файлы с результами анализов&amp;nbsp;&amp;nbsp;&amp;nbsp;&amp;nbsp;" style="rounded=1;whiteSpace=wrap;html=1;fillColor=#f5f5f5;fontColor=#333333;strokeColor=#666666;" parent="1" vertex="1">
          <mxGeometry x="1360" y="-957" width="165" height="40" as="geometry" />
        </mxCell>
        <mxCell id="AsZ9xVdUvR41cb9abi4R-68" value="&lt;span style=&quot;font-size: 7px;&quot;&gt;Риск: Потеря назначений&lt;/span&gt;" style="whiteSpace=wrap;html=1;shape=mxgraph.basic.roundRectCallout;dx=58.33;dy=9;size=5;boundedLbl=1;fillColor=#fff2cc;strokeColor=#d6b656;" parent="1" vertex="1">
          <mxGeometry x="1330" y="-807" width="120" height="29" as="geometry" />
        </mxCell>
        <mxCell id="AsZ9xVdUvR41cb9abi4R-69" value="" style="rounded=1;whiteSpace=wrap;html=1;textShadow=1;labelBorderColor=light-dark(#0ff029, #ededed);dashed=1;dashPattern=1 1;" parent="1" vertex="1">
          <mxGeometry x="60" y="-590" width="440" height="330" as="geometry" />
        </mxCell>
        <mxCell id="AsZ9xVdUvR41cb9abi4R-70" value="Пациент" style="rounded=0;whiteSpace=wrap;html=1;fillColor=#dae8fc;strokeColor=#6c8ebf;" parent="1" vertex="1">
          <mxGeometry x="80" y="-530" width="120" height="23" as="geometry" />
        </mxCell>
        <mxCell id="AsZ9xVdUvR41cb9abi4R-82" style="edgeStyle=none;rounded=0;orthogonalLoop=1;jettySize=auto;html=1;exitX=0.25;exitY=1;exitDx=0;exitDy=0;entryX=0.25;entryY=0;entryDx=0;entryDy=0;" parent="1" source="AsZ9xVdUvR41cb9abi4R-72" target="AsZ9xVdUvR41cb9abi4R-73" edge="1">
          <mxGeometry relative="1" as="geometry" />
        </mxCell>
        <mxCell id="AsZ9xVdUvR41cb9abi4R-72" value="&lt;div&gt;Банковские реквизиты&lt;/div&gt;" style="rounded=1;whiteSpace=wrap;html=1;fillColor=#f5f5f5;fontColor=#333333;strokeColor=#666666;align=left;" parent="1" vertex="1">
          <mxGeometry x="80" y="-480" width="140" height="29" as="geometry" />
        </mxCell>
        <mxCell id="AsZ9xVdUvR41cb9abi4R-73" value="Кассир" style="rounded=0;whiteSpace=wrap;html=1;fillColor=#dae8fc;strokeColor=#6c8ebf;" parent="1" vertex="1">
          <mxGeometry x="80" y="-420" width="120" height="20" as="geometry" />
        </mxCell>
        <mxCell id="AsZ9xVdUvR41cb9abi4R-74" value="Бухгалтерия" style="rounded=0;whiteSpace=wrap;html=1;fillColor=#dae8fc;strokeColor=#6c8ebf;" parent="1" vertex="1">
          <mxGeometry x="80" y="-300" width="160" height="20" as="geometry" />
        </mxCell>
        <mxCell id="AsZ9xVdUvR41cb9abi4R-75" style="edgeStyle=none;rounded=0;orthogonalLoop=1;jettySize=auto;html=1;exitX=0.25;exitY=1;exitDx=0;exitDy=0;entryX=0.215;entryY=0.007;entryDx=0;entryDy=0;entryPerimeter=0;endArrow=none;startFill=0;" parent="1" source="AsZ9xVdUvR41cb9abi4R-70" target="AsZ9xVdUvR41cb9abi4R-72" edge="1">
          <mxGeometry relative="1" as="geometry" />
        </mxCell>
        <mxCell id="AsZ9xVdUvR41cb9abi4R-76" value="Данные об оплате (через 1С)" style="rounded=1;whiteSpace=wrap;html=1;fillColor=#f5f5f5;fontColor=#333333;strokeColor=#666666;align=left;" parent="1" vertex="1">
          <mxGeometry x="80" y="-365" width="260" height="40" as="geometry" />
        </mxCell>
        <mxCell id="AsZ9xVdUvR41cb9abi4R-77" style="edgeStyle=none;rounded=0;orthogonalLoop=1;jettySize=auto;html=1;exitX=0.25;exitY=1;exitDx=0;exitDy=0;endArrow=none;startFill=0;entryX=0.123;entryY=0.068;entryDx=0;entryDy=0;entryPerimeter=0;" parent="1" source="AsZ9xVdUvR41cb9abi4R-73" target="AsZ9xVdUvR41cb9abi4R-76" edge="1">
          <mxGeometry relative="1" as="geometry">
            <mxPoint x="120" y="-340" as="targetPoint" />
          </mxGeometry>
        </mxCell>
        <mxCell id="AsZ9xVdUvR41cb9abi4R-78" style="edgeStyle=none;rounded=0;orthogonalLoop=1;jettySize=auto;html=1;exitX=0.145;exitY=1.032;exitDx=0;exitDy=0;entryX=0.25;entryY=0;entryDx=0;entryDy=0;exitPerimeter=0;" parent="1" source="AsZ9xVdUvR41cb9abi4R-76" target="AsZ9xVdUvR41cb9abi4R-74" edge="1">
          <mxGeometry relative="1" as="geometry" />
        </mxCell>
        <mxCell id="AsZ9xVdUvR41cb9abi4R-79" value="Оплата приема" style="text;strokeColor=#82b366;fillColor=#d5e8d4;align=center;verticalAlign=middle;spacingLeft=4;spacingRight=4;overflow=hidden;points=[[0,0.5],[1,0.5]];portConstraint=eastwest;rotatable=0;whiteSpace=wrap;html=1;" parent="1" vertex="1">
          <mxGeometry x="75" y="-570" width="410" height="30" as="geometry" />
        </mxCell>
        <mxCell id="AsZ9xVdUvR41cb9abi4R-80" value="&lt;font style=&quot;font-size: 7px;&quot;&gt;Возможны ошибки в отчетах (человеческий фактор)&amp;nbsp;&lt;/font&gt;" style="whiteSpace=wrap;html=1;shape=mxgraph.basic.roundRectCallout;dx=30;dy=15;size=5;boundedLbl=1;fillColor=#fff2cc;strokeColor=#d6b656;" parent="1" vertex="1">
          <mxGeometry x="270" y="-410" width="150" height="49" as="geometry" />
        </mxCell>
        <mxCell id="AsZ9xVdUvR41cb9abi4R-81" style="edgeStyle=none;rounded=0;orthogonalLoop=1;jettySize=auto;html=1;exitX=1;exitY=0.5;exitDx=0;exitDy=0;" parent="1" source="AsZ9xVdUvR41cb9abi4R-76" target="AsZ9xVdUvR41cb9abi4R-76" edge="1">
          <mxGeometry relative="1" as="geometry" />
        </mxCell>
        <mxCell id="AsZ9xVdUvR41cb9abi4R-83" value="" style="rounded=1;whiteSpace=wrap;html=1;textShadow=1;labelBorderColor=light-dark(#0ff029, #ededed);dashed=1;dashPattern=1 1;" parent="1" vertex="1">
          <mxGeometry x="540" y="-590" width="440" height="330" as="geometry" />
        </mxCell>
        <mxCell id="AsZ9xVdUvR41cb9abi4R-100" style="edgeStyle=none;rounded=0;orthogonalLoop=1;jettySize=auto;html=1;exitX=0.5;exitY=1;exitDx=0;exitDy=0;entryX=0.5;entryY=0;entryDx=0;entryDy=0;" parent="1" source="AsZ9xVdUvR41cb9abi4R-84" target="AsZ9xVdUvR41cb9abi4R-87" edge="1">
          <mxGeometry relative="1" as="geometry" />
        </mxCell>
        <mxCell id="AsZ9xVdUvR41cb9abi4R-101" style="edgeStyle=none;rounded=0;orthogonalLoop=1;jettySize=auto;html=1;exitX=0.5;exitY=1;exitDx=0;exitDy=0;entryX=0.5;entryY=0;entryDx=0;entryDy=0;endArrow=none;startFill=0;" parent="1" source="AsZ9xVdUvR41cb9abi4R-84" target="AsZ9xVdUvR41cb9abi4R-86" edge="1">
          <mxGeometry relative="1" as="geometry" />
        </mxCell>
        <mxCell id="AsZ9xVdUvR41cb9abi4R-84" value="Бухгалтерия" style="rounded=0;whiteSpace=wrap;html=1;fillColor=#dae8fc;strokeColor=#6c8ebf;" parent="1" vertex="1">
          <mxGeometry x="715" y="-520" width="120" height="23" as="geometry" />
        </mxCell>
        <mxCell id="AsZ9xVdUvR41cb9abi4R-85" style="edgeStyle=none;rounded=0;orthogonalLoop=1;jettySize=auto;html=1;exitX=0.5;exitY=1;exitDx=0;exitDy=0;entryX=0.531;entryY=0.075;entryDx=0;entryDy=0;entryPerimeter=0;" parent="1" source="AsZ9xVdUvR41cb9abi4R-86" target="AsZ9xVdUvR41cb9abi4R-88" edge="1">
          <mxGeometry relative="1" as="geometry" />
        </mxCell>
        <mxCell id="AsZ9xVdUvR41cb9abi4R-86" value="&lt;div&gt;Учет платежей&lt;/div&gt;" style="rounded=1;whiteSpace=wrap;html=1;fillColor=#f5f5f5;fontColor=#333333;strokeColor=#666666;align=left;" parent="1" vertex="1">
          <mxGeometry x="760" y="-409" width="140" height="29" as="geometry" />
        </mxCell>
        <mxCell id="AsZ9xVdUvR41cb9abi4R-87" value="1С Бухгалтерия предприятия" style="rounded=0;whiteSpace=wrap;html=1;fillColor=#dae8fc;strokeColor=#6c8ebf;" parent="1" vertex="1">
          <mxGeometry x="580" y="-410" width="130" height="30" as="geometry" />
        </mxCell>
        <mxCell id="AsZ9xVdUvR41cb9abi4R-88" value="Файловый сервер" style="rounded=0;whiteSpace=wrap;html=1;fillColor=#dae8fc;strokeColor=#6c8ebf;" parent="1" vertex="1">
          <mxGeometry x="790" y="-325" width="160" height="20" as="geometry" />
        </mxCell>
        <mxCell id="AsZ9xVdUvR41cb9abi4R-93" value="Учет денежных средств" style="text;strokeColor=#82b366;fillColor=#d5e8d4;align=center;verticalAlign=middle;spacingLeft=4;spacingRight=4;overflow=hidden;points=[[0,0.5],[1,0.5]];portConstraint=eastwest;rotatable=0;whiteSpace=wrap;html=1;" parent="1" vertex="1">
          <mxGeometry x="555" y="-570" width="410" height="30" as="geometry" />
        </mxCell>
        <mxCell id="AsZ9xVdUvR41cb9abi4R-94" value="&lt;font style=&quot;font-size: 7px;&quot;&gt;Возможны ошибки в отчетах (человеческий фактор) , н&lt;/font&gt;&lt;span style=&quot;font-size: 7px;&quot;&gt;е испольуется RBAC.&lt;/span&gt;" style="whiteSpace=wrap;html=1;shape=mxgraph.basic.roundRectCallout;dx=74.29;dy=8;size=5;boundedLbl=1;fillColor=#fff2cc;strokeColor=#d6b656;" parent="1" vertex="1">
          <mxGeometry x="830" y="-458" width="150" height="49" as="geometry" />
        </mxCell>
        <mxCell id="AsZ9xVdUvR41cb9abi4R-95" style="edgeStyle=none;rounded=0;orthogonalLoop=1;jettySize=auto;html=1;exitX=1;exitY=0.5;exitDx=0;exitDy=0;" parent="1" edge="1">
          <mxGeometry relative="1" as="geometry">
            <mxPoint x="820" y="-345" as="sourcePoint" />
            <mxPoint x="820" y="-345" as="targetPoint" />
          </mxGeometry>
        </mxCell>
        <mxCell id="AsZ9xVdUvR41cb9abi4R-96" value="Пациент" style="rounded=0;whiteSpace=wrap;html=1;fillColor=#dae8fc;strokeColor=#6c8ebf;" parent="1" vertex="1">
          <mxGeometry x="1125" y="-703" width="110" height="20" as="geometry" />
        </mxCell>
        <mxCell id="AsZ9xVdUvR41cb9abi4R-98" value="&lt;span style=&quot;font-size: 7px;&quot;&gt;Исследования в других лабораториях&amp;nbsp;&lt;/span&gt;" style="whiteSpace=wrap;html=1;shape=mxgraph.basic.roundRectCallout;dx=90.45;dy=7;size=5;boundedLbl=1;fillColor=#fff2cc;strokeColor=#d6b656;" parent="1" vertex="1">
          <mxGeometry x="1133" y="-743" width="128" height="29" as="geometry" />
        </mxCell>
        <mxCell id="AsZ9xVdUvR41cb9abi4R-103" value="" style="rounded=1;whiteSpace=wrap;html=1;textShadow=1;labelBorderColor=light-dark(#0ff029, #ededed);dashed=1;dashPattern=1 1;" parent="1" vertex="1">
          <mxGeometry x="1050" y="-590" width="440" height="330" as="geometry" />
        </mxCell>
        <mxCell id="AsZ9xVdUvR41cb9abi4R-104" style="edgeStyle=none;rounded=0;orthogonalLoop=1;jettySize=auto;html=1;exitX=0.5;exitY=1;exitDx=0;exitDy=0;entryX=0.5;entryY=0;entryDx=0;entryDy=0;" parent="1" source="AsZ9xVdUvR41cb9abi4R-106" target="AsZ9xVdUvR41cb9abi4R-109" edge="1">
          <mxGeometry relative="1" as="geometry" />
        </mxCell>
        <mxCell id="AsZ9xVdUvR41cb9abi4R-105" style="edgeStyle=none;rounded=0;orthogonalLoop=1;jettySize=auto;html=1;exitX=0.5;exitY=1;exitDx=0;exitDy=0;entryX=0.5;entryY=0;entryDx=0;entryDy=0;endArrow=none;startFill=0;" parent="1" source="AsZ9xVdUvR41cb9abi4R-109" target="AsZ9xVdUvR41cb9abi4R-108" edge="1">
          <mxGeometry relative="1" as="geometry" />
        </mxCell>
        <mxCell id="AsZ9xVdUvR41cb9abi4R-106" value="Поставщик" style="rounded=0;whiteSpace=wrap;html=1;fillColor=#dae8fc;strokeColor=#6c8ebf;" parent="1" vertex="1">
          <mxGeometry x="1225" y="-520" width="120" height="23" as="geometry" />
        </mxCell>
        <mxCell id="AsZ9xVdUvR41cb9abi4R-107" style="edgeStyle=none;rounded=0;orthogonalLoop=1;jettySize=auto;html=1;exitX=0.5;exitY=1;exitDx=0;exitDy=0;entryX=0.531;entryY=0.075;entryDx=0;entryDy=0;entryPerimeter=0;" parent="1" source="AsZ9xVdUvR41cb9abi4R-108" target="AsZ9xVdUvR41cb9abi4R-110" edge="1">
          <mxGeometry relative="1" as="geometry" />
        </mxCell>
        <mxCell id="AsZ9xVdUvR41cb9abi4R-108" value="&lt;div&gt;Учет ТМЦ&lt;/div&gt;" style="rounded=1;whiteSpace=wrap;html=1;fillColor=#f5f5f5;fontColor=#333333;strokeColor=#666666;align=left;" parent="1" vertex="1">
          <mxGeometry x="1215" y="-340" width="140" height="29" as="geometry" />
        </mxCell>
        <mxCell id="AsZ9xVdUvR41cb9abi4R-109" value="Склад" style="rounded=0;whiteSpace=wrap;html=1;fillColor=#dae8fc;strokeColor=#6c8ebf;" parent="1" vertex="1">
          <mxGeometry x="1215" y="-409.5" width="130" height="30" as="geometry" />
        </mxCell>
        <mxCell id="AsZ9xVdUvR41cb9abi4R-110" value="Бухгалтерия" style="rounded=0;whiteSpace=wrap;html=1;fillColor=#dae8fc;strokeColor=#6c8ebf;" parent="1" vertex="1">
          <mxGeometry x="1203" y="-290" width="160" height="20" as="geometry" />
        </mxCell>
        <mxCell id="AsZ9xVdUvR41cb9abi4R-111" value="Учет товарно-материальных ценностей" style="text;strokeColor=#82b366;fillColor=#d5e8d4;align=center;verticalAlign=middle;spacingLeft=4;spacingRight=4;overflow=hidden;points=[[0,0.5],[1,0.5]];portConstraint=eastwest;rotatable=0;whiteSpace=wrap;html=1;" parent="1" vertex="1">
          <mxGeometry x="1065" y="-570" width="410" height="30" as="geometry" />
        </mxCell>
        <mxCell id="AsZ9xVdUvR41cb9abi4R-112" value="&lt;font style=&quot;font-size: 7px;&quot;&gt;Проблемы: Файловая БД, нет ЭП&lt;/font&gt;" style="whiteSpace=wrap;html=1;shape=mxgraph.basic.roundRectCallout;dx=30;dy=15;size=5;boundedLbl=1;fillColor=#fff2cc;strokeColor=#d6b656;" parent="1" vertex="1">
          <mxGeometry x="1340" y="-488" width="120" height="37" as="geometry" />
        </mxCell>
        <mxCell id="AsZ9xVdUvR41cb9abi4R-113" style="edgeStyle=none;rounded=0;orthogonalLoop=1;jettySize=auto;html=1;exitX=1;exitY=0.5;exitDx=0;exitDy=0;" parent="1" edge="1">
          <mxGeometry relative="1" as="geometry">
            <mxPoint x="1330" y="-345" as="sourcePoint" />
            <mxPoint x="1330" y="-345" as="targetPoint" />
          </mxGeometry>
        </mxCell>
        <mxCell id="AsZ9xVdUvR41cb9abi4R-114" value="&lt;div&gt;Накладные&lt;/div&gt;" style="rounded=1;whiteSpace=wrap;html=1;fillColor=#f5f5f5;fontColor=#333333;strokeColor=#666666;align=left;" parent="1" vertex="1">
          <mxGeometry x="1215" y="-470" width="140" height="29" as="geometry" />
        </mxCell>
        <mxCell id="AsZ9xVdUvR41cb9abi4R-116" value="&lt;span style=&quot;font-size: 7px;&quot;&gt;Не испольуется RBAC.&lt;/span&gt;" style="whiteSpace=wrap;html=1;shape=mxgraph.basic.roundRectCallout;dx=10;dy=13;size=5;boundedLbl=1;fillColor=#fff2cc;strokeColor=#d6b656;" parent="1" vertex="1">
          <mxGeometry x="1345" y="-370" width="115" height="39.5" as="geometry" />
        </mxCell>
        <mxCell id="AsZ9xVdUvR41cb9abi4R-137" style="edgeStyle=none;rounded=0;orthogonalLoop=1;jettySize=auto;html=1;exitX=0.5;exitY=1;exitDx=0;exitDy=0;entryX=0.5;entryY=0;entryDx=0;entryDy=0;endArrow=none;startFill=0;" parent="1" source="AsZ9xVdUvR41cb9abi4R-117" target="AsZ9xVdUvR41cb9abi4R-132" edge="1">
          <mxGeometry relative="1" as="geometry" />
        </mxCell>
        <mxCell id="AsZ9xVdUvR41cb9abi4R-117" value="Лаборатория" style="rounded=0;whiteSpace=wrap;html=1;fillColor=#dae8fc;strokeColor=#6c8ebf;" parent="1" vertex="1">
          <mxGeometry x="1768" y="-1030.5" width="120" height="23" as="geometry" />
        </mxCell>
        <mxCell id="AsZ9xVdUvR41cb9abi4R-120" style="edgeStyle=none;rounded=0;orthogonalLoop=1;jettySize=auto;html=1;exitX=0.5;exitY=0;exitDx=0;exitDy=0;entryX=0.5;entryY=1;entryDx=0;entryDy=0;endArrow=classic;startFill=0;startArrow=none;endFill=1;" parent="1" source="AsZ9xVdUvR41cb9abi4R-121" target="AsZ9xVdUvR41cb9abi4R-122" edge="1">
          <mxGeometry relative="1" as="geometry">
            <mxPoint x="1782" y="-1100.5" as="targetPoint" />
          </mxGeometry>
        </mxCell>
        <mxCell id="AsZ9xVdUvR41cb9abi4R-144" style="edgeStyle=none;rounded=0;orthogonalLoop=1;jettySize=auto;html=1;exitX=0.5;exitY=1;exitDx=0;exitDy=0;" parent="1" source="AsZ9xVdUvR41cb9abi4R-121" edge="1">
          <mxGeometry relative="1" as="geometry">
            <mxPoint x="1823" y="-648.5" as="targetPoint" />
          </mxGeometry>
        </mxCell>
        <mxCell id="AsZ9xVdUvR41cb9abi4R-121" value="Специалист медик&amp;nbsp;" style="rounded=0;whiteSpace=wrap;html=1;fillColor=#dae8fc;strokeColor=#6c8ebf;" parent="1" vertex="1">
          <mxGeometry x="1888" y="-774.5" width="160" height="20" as="geometry" />
        </mxCell>
        <mxCell id="AsZ9xVdUvR41cb9abi4R-143" style="edgeStyle=none;rounded=0;orthogonalLoop=1;jettySize=auto;html=1;exitX=0.5;exitY=1;exitDx=0;exitDy=0;entryX=0.5;entryY=0;entryDx=0;entryDy=0;endArrow=none;startFill=1;startArrow=classic;" parent="1" source="AsZ9xVdUvR41cb9abi4R-122" target="AsZ9xVdUvR41cb9abi4R-139" edge="1">
          <mxGeometry relative="1" as="geometry" />
        </mxCell>
        <mxCell id="AsZ9xVdUvR41cb9abi4R-122" value="Файловый сервер" style="rounded=0;whiteSpace=wrap;html=1;fillColor=#dae8fc;strokeColor=#6c8ebf;" parent="1" vertex="1">
          <mxGeometry x="1750.5" y="-901" width="160" height="20" as="geometry" />
        </mxCell>
        <mxCell id="AsZ9xVdUvR41cb9abi4R-128" value="Проведение анализов" style="text;strokeColor=#82b366;fillColor=#d5e8d4;align=center;verticalAlign=middle;spacingLeft=4;spacingRight=4;overflow=hidden;points=[[0,0.5],[1,0.5]];portConstraint=eastwest;rotatable=0;whiteSpace=wrap;html=1;" parent="1" vertex="1">
          <mxGeometry x="1628" y="-1080.5" width="410" height="30" as="geometry" />
        </mxCell>
        <mxCell id="AsZ9xVdUvR41cb9abi4R-140" style="edgeStyle=none;rounded=0;orthogonalLoop=1;jettySize=auto;html=1;exitX=0.5;exitY=1;exitDx=0;exitDy=0;entryX=0.5;entryY=0;entryDx=0;entryDy=0;" parent="1" source="AsZ9xVdUvR41cb9abi4R-132" target="AsZ9xVdUvR41cb9abi4R-122" edge="1">
          <mxGeometry relative="1" as="geometry" />
        </mxCell>
        <mxCell id="AsZ9xVdUvR41cb9abi4R-132" value="файлы с результами анализов&amp;nbsp;&amp;nbsp;&amp;nbsp;&amp;nbsp;" style="rounded=1;whiteSpace=wrap;html=1;fillColor=#f5f5f5;fontColor=#333333;strokeColor=#666666;" parent="1" vertex="1">
          <mxGeometry x="1745.5" y="-973.5" width="165" height="40" as="geometry" />
        </mxCell>
        <mxCell id="AsZ9xVdUvR41cb9abi4R-133" value="&lt;span style=&quot;font-size: 7px;&quot;&gt;Доступ ко всем анализам всех пациентов&lt;/span&gt;" style="whiteSpace=wrap;html=1;shape=mxgraph.basic.roundRectCallout;dx=58.33;dy=9;size=5;boundedLbl=1;fillColor=#fff2cc;strokeColor=#d6b656;" parent="1" vertex="1">
          <mxGeometry x="1873" y="-872.5" width="140" height="29" as="geometry" />
        </mxCell>
        <mxCell id="AsZ9xVdUvR41cb9abi4R-138" value="Пациент" style="rounded=0;whiteSpace=wrap;html=1;fillColor=#dae8fc;strokeColor=#6c8ebf;" parent="1" vertex="1">
          <mxGeometry x="1773" y="-648.5" width="110" height="20" as="geometry" />
        </mxCell>
        <mxCell id="AsZ9xVdUvR41cb9abi4R-141" style="edgeStyle=none;rounded=0;orthogonalLoop=1;jettySize=auto;html=1;exitX=0.5;exitY=1;exitDx=0;exitDy=0;entryX=0.5;entryY=0;entryDx=0;entryDy=0;" parent="1" source="AsZ9xVdUvR41cb9abi4R-139" target="AsZ9xVdUvR41cb9abi4R-138" edge="1">
          <mxGeometry relative="1" as="geometry" />
        </mxCell>
        <mxCell id="AsZ9xVdUvR41cb9abi4R-139" value="Сотрудник ресепшена" style="rounded=0;whiteSpace=wrap;html=1;fillColor=#dae8fc;strokeColor=#6c8ebf;" parent="1" vertex="1">
          <mxGeometry x="1608" y="-775.5" width="160" height="20" as="geometry" />
        </mxCell>
        <mxCell id="AsZ9xVdUvR41cb9abi4R-142" value="файлы с результами анализов&amp;nbsp;&amp;nbsp;&amp;nbsp;&amp;nbsp;" style="rounded=1;whiteSpace=wrap;html=1;fillColor=#f5f5f5;fontColor=#333333;strokeColor=#666666;" parent="1" vertex="1">
          <mxGeometry x="1725.5" y="-843.5" width="205" height="40" as="geometry" />
        </mxCell>
        <mxCell id="AsZ9xVdUvR41cb9abi4R-145" value="Результаты анализов" style="rounded=1;whiteSpace=wrap;html=1;fillColor=#f5f5f5;fontColor=#333333;strokeColor=#666666;" parent="1" vertex="1">
          <mxGeometry x="1725.5" y="-725.5" width="205" height="40" as="geometry" />
        </mxCell>
      </root>
    </mxGraphModel>
  </diagram>
</mxfile>
